<svg xmlns="http://www.w3.org/2000/svg" version="1.1" xmlns:xlink="http://www.w3.org/1999/xlink" xmlns:svgjs="http://svgjs.com/svgjs" width="1920" height="1080" preserveAspectRatio="none" viewBox="0 0 1920 1080"><g mask="url(&quot;#SvgjsMask1493&quot;)" fill="none"><rect width="1920" height="1080" x="0" y="0" fill="rgba(255, 255, 255, 1)"></rect><g mask="url(&quot;#SvgjsMask1494&quot;)"><path d="M1662.5 537.5L1637.5 512.5L1612.5 512.5M1762.5 537.5L1737.5 562.5M1712.5 537.5L1687.5 512.5M1937.5 537.5L1912.5 537.5L1887.5 537.5L1862.5 537.5L1837.5 537.5L1812.5 562.5L1787.5 562.5L1762.5 537.5L1737.5 537.5L1712.5 537.5L1687.5 537.5L1662.5 537.5L1637.5 537.5" stroke="rgba(0, 0, 0, 1)" stroke-width="4.17"></path><path d="M1631.25 537.5 a6.25 6.25 0 1 0 12.5 0 a6.25 6.25 0 1 0 -12.5 0zM1606.25 512.5 a6.25 6.25 0 1 0 12.5 0 a6.25 6.25 0 1 0 -12.5 0zM1731.25 562.5 a6.25 6.25 0 1 0 12.5 0 a6.25 6.25 0 1 0 -12.5 0zM1681.25 512.5 a6.25 6.25 0 1 0 12.5 0 a6.25 6.25 0 1 0 -12.5 0z" fill="rgba(0, 0, 0, 1)"></path><path d="M1937.5 562.5L1912.5 562.5L1887.5 562.5" stroke="rgba(0, 0, 0, 1)" stroke-width="4.17"></path><path d="M1881.25 562.5 a6.25 6.25 0 1 0 12.5 0 a6.25 6.25 0 1 0 -12.5 0z" fill="rgba(0, 0, 0, 1)"></path><path d="M1862.5 512.5L1837.5 487.5M1937.5 512.5L1912.5 512.5L1887.5 512.5L1862.5 512.5L1837.5 512.5" stroke="rgba(0, 0, 0, 1)" stroke-width="4.17"></path><path d="M1831.25 512.5 a6.25 6.25 0 1 0 12.5 0 a6.25 6.25 0 1 0 -12.5 0zM1831.25 487.5 a6.25 6.25 0 1 0 12.5 0 a6.25 6.25 0 1 0 -12.5 0z" fill="rgba(0, 0, 0, 1)"></path><path d="M1587.5 562.5L1562.5 587.5L1537.5 587.5M1512.5 562.5L1487.5 587.5L1462.5 612.5L1437.5 612.5L1412.5 612.5M1737.5 587.5L1712.5 587.5M1387.5 562.5L1362.5 587.5M1437.5 562.5L1412.5 537.5L1387.5 537.5L1362.5 537.5L1337.5 537.5L1312.5 537.5L1287.5 537.5L1262.5 537.5L1237.5 537.5M1787.5 587.5L1762.5 612.5L1737.5 612.5M1937.5 587.5L1912.5 587.5L1887.5 587.5L1862.5 587.5L1837.5 587.5L1812.5 587.5L1787.5 587.5L1762.5 587.5L1737.5 587.5L1712.5 562.5L1687.5 562.5L1662.5 562.5L1637.5 562.5L1612.5 562.5L1587.5 562.5L1562.5 562.5L1537.5 562.5L1512.5 562.5L1487.5 562.5L1462.5 562.5L1437.5 562.5L1412.5 562.5L1387.5 562.5L1362.5 562.5L1337.5 587.5" stroke="rgba(0, 0, 0, 1)" stroke-width="4.17"></path><path d="M1331.25 587.5 a6.25 6.25 0 1 0 12.5 0 a6.25 6.25 0 1 0 -12.5 0zM1531.25 587.5 a6.25 6.25 0 1 0 12.5 0 a6.25 6.25 0 1 0 -12.5 0zM1406.25 612.5 a6.25 6.25 0 1 0 12.5 0 a6.25 6.25 0 1 0 -12.5 0zM1706.25 587.5 a6.25 6.25 0 1 0 12.5 0 a6.25 6.25 0 1 0 -12.5 0zM1356.25 587.5 a6.25 6.25 0 1 0 12.5 0 a6.25 6.25 0 1 0 -12.5 0zM1231.25 537.5 a6.25 6.25 0 1 0 12.5 0 a6.25 6.25 0 1 0 -12.5 0zM1731.25 612.5 a6.25 6.25 0 1 0 12.5 0 a6.25 6.25 0 1 0 -12.5 0z" fill="rgba(0, 0, 0, 1)"></path><path d="M1937.5 487.5L1912.5 487.5L1887.5 487.5" stroke="rgba(0, 0, 0, 1)" stroke-width="4.17"></path><path d="M1881.25 487.5 a6.25 6.25 0 1 0 12.5 0 a6.25 6.25 0 1 0 -12.5 0z" fill="rgba(0, 0, 0, 1)"></path><path d="M1587.5 637.5L1562.5 662.5L1537.5 662.5M1512.5 637.5L1487.5 662.5M1562.5 637.5L1537.5 612.5L1512.5 612.5M1437.5 637.5L1412.5 662.5L1387.5 662.5L1362.5 637.5L1337.5 637.5M1712.5 662.5L1687.5 637.5L1662.5 612.5M1762.5 662.5L1737.5 637.5L1712.5 612.5L1687.5 612.5L1662.5 587.5L1637.5 587.5L1612.5 587.5M1937.5 612.5L1912.5 612.5L1887.5 612.5L1862.5 612.5L1837.5 612.5L1812.5 612.5L1787.5 637.5L1762.5 662.5L1737.5 662.5L1712.5 662.5L1687.5 662.5L1662.5 662.5L1637.5 662.5L1612.5 637.5L1587.5 637.5L1562.5 637.5L1537.5 637.5L1512.5 637.5L1487.5 637.5L1462.5 637.5L1437.5 637.5L1412.5 637.5L1387.5 637.5L1362.5 612.5L1337.5 612.5L1312.5 612.5" stroke="rgba(0, 0, 0, 1)" stroke-width="4.17"></path><path d="M1306.25 612.5 a6.25 6.25 0 1 0 12.5 0 a6.25 6.25 0 1 0 -12.5 0zM1531.25 662.5 a6.25 6.25 0 1 0 12.5 0 a6.25 6.25 0 1 0 -12.5 0zM1481.25 662.5 a6.25 6.25 0 1 0 12.5 0 a6.25 6.25 0 1 0 -12.5 0zM1506.25 612.5 a6.25 6.25 0 1 0 12.5 0 a6.25 6.25 0 1 0 -12.5 0zM1331.25 637.5 a6.25 6.25 0 1 0 12.5 0 a6.25 6.25 0 1 0 -12.5 0zM1656.25 612.5 a6.25 6.25 0 1 0 12.5 0 a6.25 6.25 0 1 0 -12.5 0zM1606.25 587.5 a6.25 6.25 0 1 0 12.5 0 a6.25 6.25 0 1 0 -12.5 0z" fill="rgba(0, 0, 0, 1)"></path><path d="M1562.5 487.5L1537.5 462.5L1512.5 437.5L1487.5 437.5L1462.5 437.5M1662.5 487.5L1637.5 462.5L1612.5 462.5L1587.5 462.5L1562.5 462.5M1812.5 487.5L1787.5 512.5L1762.5 512.5L1737.5 512.5L1712.5 512.5M1337.5 462.5L1312.5 437.5L1287.5 437.5L1262.5 437.5L1237.5 437.5L1212.5 437.5M1837.5 462.5L1812.5 462.5L1787.5 462.5L1762.5 462.5L1737.5 462.5M1387.5 462.5L1362.5 487.5L1337.5 487.5L1312.5 487.5L1287.5 487.5M1487.5 462.5L1462.5 487.5L1437.5 487.5L1412.5 487.5L1387.5 487.5M1937.5 462.5L1912.5 462.5L1887.5 462.5L1862.5 462.5L1837.5 462.5L1812.5 487.5L1787.5 487.5L1762.5 487.5L1737.5 487.5L1712.5 487.5L1687.5 487.5L1662.5 487.5L1637.5 487.5L1612.5 487.5L1587.5 487.5L1562.5 487.5L1537.5 487.5L1512.5 462.5L1487.5 462.5L1462.5 462.5L1437.5 462.5L1412.5 462.5L1387.5 462.5L1362.5 462.5L1337.5 462.5L1312.5 462.5L1287.5 462.5L1262.5 462.5L1237.5 462.5" stroke="rgba(0, 0, 0, 1)" stroke-width="4.17"></path><path d="M1231.25 462.5 a6.25 6.25 0 1 0 12.5 0 a6.25 6.25 0 1 0 -12.5 0zM1456.25 437.5 a6.25 6.25 0 1 0 12.5 0 a6.25 6.25 0 1 0 -12.5 0zM1556.25 462.5 a6.25 6.25 0 1 0 12.5 0 a6.25 6.25 0 1 0 -12.5 0zM1706.25 512.5 a6.25 6.25 0 1 0 12.5 0 a6.25 6.25 0 1 0 -12.5 0zM1206.25 437.5 a6.25 6.25 0 1 0 12.5 0 a6.25 6.25 0 1 0 -12.5 0zM1731.25 462.5 a6.25 6.25 0 1 0 12.5 0 a6.25 6.25 0 1 0 -12.5 0zM1281.25 487.5 a6.25 6.25 0 1 0 12.5 0 a6.25 6.25 0 1 0 -12.5 0zM1381.25 487.5 a6.25 6.25 0 1 0 12.5 0 a6.25 6.25 0 1 0 -12.5 0z" fill="rgba(0, 0, 0, 1)"></path><path d="M1362.5 687.5L1337.5 662.5L1312.5 662.5L1287.5 662.5L1262.5 662.5M1312.5 687.5L1287.5 712.5L1262.5 712.5L1237.5 712.5L1212.5 712.5M1187.5 687.5L1162.5 662.5L1137.5 662.5L1112.5 662.5L1087.5 662.5L1062.5 662.5M1062.5 687.5L1037.5 712.5L1012.5 712.5L987.5 712.5L962.5 712.5M1462.5 687.5L1437.5 662.5M987.5 687.5L962.5 662.5L937.5 662.5L912.5 662.5L887.5 662.5L862.5 662.5M1037.5 687.5L1012.5 662.5L987.5 662.5L962.5 637.5M1237.5 687.5L1212.5 662.5M1087.5 687.5L1062.5 712.5L1037.5 737.5L1012.5 737.5L987.5 737.5L962.5 737.5L937.5 737.5L912.5 762.5L887.5 762.5M937.5 687.5L912.5 712.5L887.5 712.5L862.5 712.5M1937.5 637.5L1912.5 637.5L1887.5 637.5L1862.5 637.5L1837.5 637.5L1812.5 637.5L1787.5 662.5L1762.5 687.5L1737.5 687.5L1712.5 687.5L1687.5 687.5L1662.5 687.5L1637.5 687.5L1612.5 687.5L1587.5 687.5L1562.5 687.5L1537.5 687.5L1512.5 687.5L1487.5 687.5L1462.5 687.5L1437.5 687.5L1412.5 687.5L1387.5 687.5L1362.5 687.5L1337.5 687.5L1312.5 687.5L1287.5 687.5L1262.5 687.5L1237.5 687.5L1212.5 687.5L1187.5 687.5L1162.5 687.5L1137.5 687.5L1112.5 687.5L1087.5 687.5L1062.5 687.5L1037.5 687.5L1012.5 687.5L987.5 687.5L962.5 687.5L937.5 687.5L912.5 687.5L887.5 687.5" stroke="rgba(0, 0, 0, 1)" stroke-width="4.17"></path><path d="M881.25 687.5 a6.25 6.25 0 1 0 12.5 0 a6.25 6.25 0 1 0 -12.5 0zM1256.25 662.5 a6.25 6.25 0 1 0 12.5 0 a6.25 6.25 0 1 0 -12.5 0zM1206.25 712.5 a6.25 6.25 0 1 0 12.5 0 a6.25 6.25 0 1 0 -12.5 0zM1056.25 662.5 a6.25 6.25 0 1 0 12.5 0 a6.25 6.25 0 1 0 -12.5 0zM956.25 712.5 a6.25 6.25 0 1 0 12.5 0 a6.25 6.25 0 1 0 -12.5 0zM1431.25 662.5 a6.25 6.25 0 1 0 12.5 0 a6.25 6.25 0 1 0 -12.5 0zM856.25 662.5 a6.25 6.25 0 1 0 12.5 0 a6.25 6.25 0 1 0 -12.5 0zM956.25 637.5 a6.25 6.25 0 1 0 12.5 0 a6.25 6.25 0 1 0 -12.5 0zM1206.25 662.5 a6.25 6.25 0 1 0 12.5 0 a6.25 6.25 0 1 0 -12.5 0zM881.25 762.5 a6.25 6.25 0 1 0 12.5 0 a6.25 6.25 0 1 0 -12.5 0zM856.25 712.5 a6.25 6.25 0 1 0 12.5 0 a6.25 6.25 0 1 0 -12.5 0z" fill="rgba(0, 0, 0, 1)"></path><path d="M1862.5 437.5L1837.5 412.5L1812.5 412.5L1787.5 412.5L1762.5 412.5M1887.5 437.5L1862.5 412.5M1937.5 437.5L1912.5 437.5L1887.5 437.5L1862.5 437.5L1837.5 437.5" stroke="rgba(0, 0, 0, 1)" stroke-width="4.17"></path><path d="M1831.25 437.5 a6.25 6.25 0 1 0 12.5 0 a6.25 6.25 0 1 0 -12.5 0zM1756.25 412.5 a6.25 6.25 0 1 0 12.5 0 a6.25 6.25 0 1 0 -12.5 0zM1856.25 412.5 a6.25 6.25 0 1 0 12.5 0 a6.25 6.25 0 1 0 -12.5 0z" fill="rgba(0, 0, 0, 1)"></path><path d="M1937.5 662.5L1912.5 662.5L1887.5 662.5L1862.5 662.5L1837.5 662.5L1812.5 662.5L1787.5 687.5L1762.5 712.5L1737.5 712.5L1712.5 712.5L1687.5 712.5L1662.5 712.5L1637.5 712.5L1612.5 712.5L1587.5 712.5L1562.5 712.5L1537.5 712.5L1512.5 712.5L1487.5 712.5L1462.5 712.5L1437.5 712.5L1412.5 712.5L1387.5 712.5L1362.5 712.5L1337.5 712.5" stroke="rgba(0, 0, 0, 1)" stroke-width="4.17"></path><path d="M1331.25 712.5 a6.25 6.25 0 1 0 12.5 0 a6.25 6.25 0 1 0 -12.5 0z" fill="rgba(0, 0, 0, 1)"></path><path d="M1612.5 387.5L1587.5 387.5M1737.5 387.5L1712.5 362.5L1687.5 362.5M1812.5 387.5L1787.5 387.5M1937.5 412.5L1912.5 412.5L1887.5 387.5L1862.5 387.5L1837.5 387.5L1812.5 387.5L1787.5 362.5L1762.5 362.5L1737.5 387.5L1712.5 387.5L1687.5 387.5L1662.5 387.5L1637.5 387.5L1612.5 387.5L1587.5 362.5" stroke="rgba(0, 0, 0, 1)" stroke-width="4.17"></path><path d="M1581.25 362.5 a6.25 6.25 0 1 0 12.5 0 a6.25 6.25 0 1 0 -12.5 0zM1581.25 387.5 a6.25 6.25 0 1 0 12.5 0 a6.25 6.25 0 1 0 -12.5 0zM1681.25 362.5 a6.25 6.25 0 1 0 12.5 0 a6.25 6.25 0 1 0 -12.5 0zM1781.25 387.5 a6.25 6.25 0 1 0 12.5 0 a6.25 6.25 0 1 0 -12.5 0z" fill="rgba(0, 0, 0, 1)"></path><path d="M1937.5 687.5L1912.5 687.5L1887.5 687.5L1862.5 687.5L1837.5 687.5" stroke="rgba(0, 0, 0, 1)" stroke-width="4.17"></path><path d="M1831.25 687.5 a6.25 6.25 0 1 0 12.5 0 a6.25 6.25 0 1 0 -12.5 0z" fill="rgba(0, 0, 0, 1)"></path><path d="M1262.5 387.5L1237.5 387.5M1212.5 412.5L1187.5 387.5M1662.5 337.5L1637.5 362.5L1612.5 362.5M1762.5 337.5L1737.5 312.5L1712.5 287.5M1412.5 362.5L1387.5 387.5M1487.5 362.5L1462.5 337.5L1437.5 337.5L1412.5 337.5L1387.5 337.5L1362.5 337.5L1337.5 337.5M1537.5 362.5L1512.5 337.5L1487.5 337.5L1462.5 312.5L1437.5 287.5M1862.5 362.5L1837.5 362.5L1812.5 362.5M1937.5 387.5L1912.5 387.5L1887.5 362.5L1862.5 362.5L1837.5 337.5L1812.5 337.5L1787.5 337.5L1762.5 337.5L1737.5 337.5L1712.5 337.5L1687.5 337.5L1662.5 337.5L1637.5 337.5L1612.5 337.5L1587.5 337.5L1562.5 337.5L1537.5 362.5L1512.5 362.5L1487.5 362.5L1462.5 362.5L1437.5 362.5L1412.5 362.5L1387.5 362.5L1362.5 362.5L1337.5 362.5L1312.5 362.5L1287.5 362.5L1262.5 387.5L1237.5 412.5L1212.5 412.5L1187.5 412.5L1162.5 412.5L1137.5 412.5L1112.5 412.5" stroke="rgba(0, 0, 0, 1)" stroke-width="4.17"></path><path d="M1106.25 412.5 a6.25 6.25 0 1 0 12.5 0 a6.25 6.25 0 1 0 -12.5 0zM1231.25 387.5 a6.25 6.25 0 1 0 12.5 0 a6.25 6.25 0 1 0 -12.5 0zM1181.25 387.5 a6.25 6.25 0 1 0 12.5 0 a6.25 6.25 0 1 0 -12.5 0zM1606.25 362.5 a6.25 6.25 0 1 0 12.5 0 a6.25 6.25 0 1 0 -12.5 0zM1706.25 287.5 a6.25 6.25 0 1 0 12.5 0 a6.25 6.25 0 1 0 -12.5 0zM1381.25 387.5 a6.25 6.25 0 1 0 12.5 0 a6.25 6.25 0 1 0 -12.5 0zM1331.25 337.5 a6.25 6.25 0 1 0 12.5 0 a6.25 6.25 0 1 0 -12.5 0zM1431.25 287.5 a6.25 6.25 0 1 0 12.5 0 a6.25 6.25 0 1 0 -12.5 0zM1806.25 362.5 a6.25 6.25 0 1 0 12.5 0 a6.25 6.25 0 1 0 -12.5 0z" fill="rgba(0, 0, 0, 1)"></path><path d="M1662.5 737.5L1637.5 762.5L1612.5 762.5M1462.5 737.5L1437.5 762.5L1412.5 762.5L1387.5 762.5L1362.5 762.5L1337.5 762.5L1312.5 762.5L1287.5 762.5L1262.5 762.5L1237.5 762.5L1212.5 762.5M1187.5 737.5L1162.5 712.5L1137.5 712.5M1487.5 737.5L1462.5 762.5M1162.5 737.5L1137.5 762.5L1112.5 787.5L1087.5 787.5L1062.5 787.5L1037.5 787.5L1012.5 787.5L987.5 812.5L962.5 812.5L937.5 812.5L912.5 812.5M1812.5 737.5L1787.5 712.5M1112.5 737.5L1087.5 762.5L1062.5 762.5L1037.5 762.5L1012.5 762.5M1837.5 712.5L1812.5 712.5M1937.5 712.5L1912.5 712.5L1887.5 712.5L1862.5 712.5L1837.5 712.5L1812.5 737.5L1787.5 737.5L1762.5 737.5L1737.5 737.5L1712.5 737.5L1687.5 737.5L1662.5 737.5L1637.5 737.5L1612.5 737.5L1587.5 737.5L1562.5 737.5L1537.5 737.5L1512.5 737.5L1487.5 737.5L1462.5 737.5L1437.5 737.5L1412.5 737.5L1387.5 737.5L1362.5 737.5L1337.5 737.5L1312.5 737.5L1287.5 737.5L1262.5 737.5L1237.5 737.5L1212.5 737.5L1187.5 737.5L1162.5 737.5L1137.5 737.5L1112.5 737.5L1087.5 737.5" stroke="rgba(0, 0, 0, 1)" stroke-width="4.17"></path><path d="M1081.25 737.5 a6.25 6.25 0 1 0 12.5 0 a6.25 6.25 0 1 0 -12.5 0zM1606.25 762.5 a6.25 6.25 0 1 0 12.5 0 a6.25 6.25 0 1 0 -12.5 0zM1206.25 762.5 a6.25 6.25 0 1 0 12.5 0 a6.25 6.25 0 1 0 -12.5 0zM1131.25 712.5 a6.25 6.25 0 1 0 12.5 0 a6.25 6.25 0 1 0 -12.5 0zM1456.25 762.5 a6.25 6.25 0 1 0 12.5 0 a6.25 6.25 0 1 0 -12.5 0zM906.25 812.5 a6.25 6.25 0 1 0 12.5 0 a6.25 6.25 0 1 0 -12.5 0zM1781.25 712.5 a6.25 6.25 0 1 0 12.5 0 a6.25 6.25 0 1 0 -12.5 0zM1006.25 762.5 a6.25 6.25 0 1 0 12.5 0 a6.25 6.25 0 1 0 -12.5 0zM1806.25 712.5 a6.25 6.25 0 1 0 12.5 0 a6.25 6.25 0 1 0 -12.5 0z" fill="rgba(0, 0, 0, 1)"></path><path d="M1937.5 362.5L1912.5 362.5L1887.5 337.5L1862.5 337.5L1837.5 312.5L1812.5 312.5" stroke="rgba(0, 0, 0, 1)" stroke-width="4.17"></path><path d="M1806.25 312.5 a6.25 6.25 0 1 0 12.5 0 a6.25 6.25 0 1 0 -12.5 0z" fill="rgba(0, 0, 0, 1)"></path><path d="M1937.5 737.5L1912.5 737.5L1887.5 737.5L1862.5 737.5L1837.5 737.5L1812.5 762.5L1787.5 762.5L1762.5 762.5L1737.5 762.5L1712.5 762.5L1687.5 762.5" stroke="rgba(0, 0, 0, 1)" stroke-width="4.17"></path><path d="M1681.25 762.5 a6.25 6.25 0 1 0 12.5 0 a6.25 6.25 0 1 0 -12.5 0z" fill="rgba(0, 0, 0, 1)"></path><path d="M1937.5 337.5L1912.5 337.5L1887.5 312.5L1862.5 312.5L1837.5 287.5L1812.5 287.5L1787.5 287.5" stroke="rgba(0, 0, 0, 1)" stroke-width="4.17"></path><path d="M1781.25 287.5 a6.25 6.25 0 1 0 12.5 0 a6.25 6.25 0 1 0 -12.5 0z" fill="rgba(0, 0, 0, 1)"></path><path d="M1937.5 762.5L1912.5 762.5L1887.5 762.5L1862.5 762.5" stroke="rgba(0, 0, 0, 1)" stroke-width="4.17"></path><path d="M1856.25 762.5 a6.25 6.25 0 1 0 12.5 0 a6.25 6.25 0 1 0 -12.5 0z" fill="rgba(0, 0, 0, 1)"></path><path d="M1212.5 262.5L1187.5 287.5M1162.5 262.5L1137.5 237.5L1112.5 237.5L1087.5 237.5L1062.5 237.5L1037.5 237.5L1012.5 237.5M1512.5 237.5L1487.5 262.5L1462.5 262.5M1287.5 262.5L1262.5 287.5L1237.5 287.5L1212.5 287.5L1187.5 312.5L1162.5 337.5L1137.5 337.5M1537.5 237.5L1512.5 262.5L1487.5 287.5L1462.5 287.5M1187.5 262.5L1162.5 237.5L1137.5 212.5L1112.5 212.5L1087.5 212.5M1687.5 237.5L1662.5 262.5L1637.5 262.5L1612.5 262.5L1587.5 262.5M1312.5 262.5L1287.5 237.5L1262.5 237.5L1237.5 237.5L1212.5 237.5L1187.5 237.5L1162.5 212.5M1087.5 262.5L1062.5 287.5L1037.5 287.5L1012.5 287.5L987.5 287.5L962.5 287.5L937.5 287.5L912.5 287.5M1412.5 237.5L1387.5 262.5L1362.5 262.5L1337.5 262.5L1312.5 287.5L1287.5 287.5L1262.5 312.5L1237.5 312.5L1212.5 312.5L1187.5 337.5M1937.5 312.5L1912.5 312.5L1887.5 287.5L1862.5 287.5L1837.5 262.5L1812.5 262.5L1787.5 262.5L1762.5 262.5L1737.5 262.5L1712.5 262.5L1687.5 237.5L1662.5 237.5L1637.5 237.5L1612.5 237.5L1587.5 237.5L1562.5 237.5L1537.5 237.5L1512.5 237.5L1487.5 237.5L1462.5 237.5L1437.5 237.5L1412.5 237.5L1387.5 237.5L1362.5 237.5L1337.5 237.5L1312.5 262.5L1287.5 262.5L1262.5 262.5L1237.5 262.5L1212.5 262.5L1187.5 262.5L1162.5 262.5L1137.5 262.5L1112.5 262.5L1087.5 262.5L1062.5 262.5L1037.5 262.5L1012.5 262.5L987.5 262.5L962.5 262.5L937.5 262.5L912.5 262.5" stroke="rgba(0, 0, 0, 1)" stroke-width="4.17"></path><path d="M906.25 262.5 a6.25 6.25 0 1 0 12.5 0 a6.25 6.25 0 1 0 -12.5 0zM1181.25 287.5 a6.25 6.25 0 1 0 12.5 0 a6.25 6.25 0 1 0 -12.5 0zM1006.25 237.5 a6.25 6.25 0 1 0 12.5 0 a6.25 6.25 0 1 0 -12.5 0zM1456.25 262.5 a6.25 6.25 0 1 0 12.5 0 a6.25 6.25 0 1 0 -12.5 0zM1131.25 337.5 a6.25 6.25 0 1 0 12.5 0 a6.25 6.25 0 1 0 -12.5 0zM1456.25 287.5 a6.25 6.25 0 1 0 12.5 0 a6.25 6.25 0 1 0 -12.5 0zM1081.25 212.5 a6.25 6.25 0 1 0 12.5 0 a6.25 6.25 0 1 0 -12.5 0zM1581.25 262.5 a6.25 6.25 0 1 0 12.5 0 a6.25 6.25 0 1 0 -12.5 0zM1156.25 212.5 a6.25 6.25 0 1 0 12.5 0 a6.25 6.25 0 1 0 -12.5 0zM906.25 287.5 a6.25 6.25 0 1 0 12.5 0 a6.25 6.25 0 1 0 -12.5 0zM1181.25 337.5 a6.25 6.25 0 1 0 12.5 0 a6.25 6.25 0 1 0 -12.5 0z" fill="rgba(0, 0, 0, 1)"></path><path d="M1762.5 787.5L1737.5 812.5M1887.5 787.5L1862.5 812.5L1837.5 812.5M1712.5 787.5L1687.5 812.5L1662.5 812.5L1637.5 812.5M1812.5 787.5L1787.5 812.5L1762.5 812.5L1737.5 837.5M1462.5 787.5L1437.5 812.5L1412.5 812.5M1937.5 787.5L1912.5 787.5L1887.5 787.5L1862.5 787.5L1837.5 787.5L1812.5 787.5L1787.5 787.5L1762.5 787.5L1737.5 787.5L1712.5 787.5L1687.5 787.5L1662.5 787.5L1637.5 787.5L1612.5 787.5L1587.5 762.5L1562.5 762.5L1537.5 762.5L1512.5 762.5L1487.5 787.5L1462.5 787.5L1437.5 787.5" stroke="rgba(0, 0, 0, 1)" stroke-width="4.17"></path><path d="M1431.25 787.5 a6.25 6.25 0 1 0 12.5 0 a6.25 6.25 0 1 0 -12.5 0zM1731.25 812.5 a6.25 6.25 0 1 0 12.5 0 a6.25 6.25 0 1 0 -12.5 0zM1831.25 812.5 a6.25 6.25 0 1 0 12.5 0 a6.25 6.25 0 1 0 -12.5 0zM1631.25 812.5 a6.25 6.25 0 1 0 12.5 0 a6.25 6.25 0 1 0 -12.5 0zM1731.25 837.5 a6.25 6.25 0 1 0 12.5 0 a6.25 6.25 0 1 0 -12.5 0zM1406.25 812.5 a6.25 6.25 0 1 0 12.5 0 a6.25 6.25 0 1 0 -12.5 0z" fill="rgba(0, 0, 0, 1)"></path><path d="M1512.5 212.5L1487.5 187.5L1462.5 162.5L1437.5 162.5L1412.5 162.5L1387.5 162.5L1362.5 162.5L1337.5 137.5L1312.5 137.5L1287.5 112.5L1262.5 112.5L1237.5 112.5L1212.5 112.5L1187.5 112.5L1162.5 137.5M1887.5 262.5L1862.5 237.5L1837.5 212.5L1812.5 187.5L1787.5 187.5L1762.5 162.5L1737.5 162.5L1712.5 162.5L1687.5 162.5M1337.5 212.5L1312.5 187.5L1287.5 187.5L1262.5 162.5L1237.5 162.5L1212.5 162.5L1187.5 162.5L1162.5 162.5M1612.5 212.5L1587.5 187.5L1562.5 162.5L1537.5 162.5L1512.5 162.5L1487.5 162.5L1462.5 137.5L1437.5 137.5L1412.5 137.5L1387.5 137.5L1362.5 137.5L1337.5 112.5L1312.5 112.5M1787.5 212.5L1762.5 237.5M1112.5 187.5L1087.5 162.5M1012.5 212.5L987.5 212.5L962.5 212.5L937.5 212.5L912.5 212.5M1812.5 212.5L1787.5 237.5M1412.5 212.5L1387.5 187.5L1362.5 187.5L1337.5 187.5L1312.5 162.5L1287.5 162.5M1937.5 287.5L1912.5 287.5L1887.5 262.5L1862.5 262.5L1837.5 237.5L1812.5 212.5L1787.5 212.5L1762.5 212.5L1737.5 237.5L1712.5 237.5L1687.5 212.5L1662.5 212.5L1637.5 212.5L1612.5 212.5L1587.5 212.5L1562.5 212.5L1537.5 212.5L1512.5 212.5L1487.5 212.5L1462.5 212.5L1437.5 212.5L1412.5 212.5L1387.5 212.5L1362.5 212.5L1337.5 212.5L1312.5 212.5L1287.5 212.5L1262.5 187.5L1237.5 187.5L1212.5 187.5L1187.5 187.5L1162.5 187.5L1137.5 187.5L1112.5 187.5L1087.5 187.5L1062.5 212.5L1037.5 212.5L1012.5 212.5L987.5 237.5" stroke="rgba(0, 0, 0, 1)" stroke-width="4.17"></path><path d="M981.25 237.5 a6.25 6.25 0 1 0 12.5 0 a6.25 6.25 0 1 0 -12.5 0zM1156.25 137.5 a6.25 6.25 0 1 0 12.5 0 a6.25 6.25 0 1 0 -12.5 0zM1681.25 162.5 a6.25 6.25 0 1 0 12.5 0 a6.25 6.25 0 1 0 -12.5 0zM1156.25 162.5 a6.25 6.25 0 1 0 12.5 0 a6.25 6.25 0 1 0 -12.5 0zM1306.25 112.5 a6.25 6.25 0 1 0 12.5 0 a6.25 6.25 0 1 0 -12.5 0zM1756.25 237.5 a6.25 6.25 0 1 0 12.5 0 a6.25 6.25 0 1 0 -12.5 0zM1081.25 162.5 a6.25 6.25 0 1 0 12.5 0 a6.25 6.25 0 1 0 -12.5 0zM906.25 212.5 a6.25 6.25 0 1 0 12.5 0 a6.25 6.25 0 1 0 -12.5 0zM1781.25 237.5 a6.25 6.25 0 1 0 12.5 0 a6.25 6.25 0 1 0 -12.5 0zM1281.25 162.5 a6.25 6.25 0 1 0 12.5 0 a6.25 6.25 0 1 0 -12.5 0z" fill="rgba(0, 0, 0, 1)"></path></g></g><defs><mask id="SvgjsMask1493"><rect width="1920" height="1080" fill="#ffffff"></rect></mask><mask id="SvgjsMask1494"><rect width="1920" height="1080" fill="white"></rect><path d="M1634.37 537.5 a3.13 3.13 0 1 0 6.26 0 a3.13 3.13 0 1 0 -6.26 0zM1609.37 512.5 a3.13 3.13 0 1 0 6.26 0 a3.13 3.13 0 1 0 -6.26 0zM1734.37 562.5 a3.13 3.13 0 1 0 6.26 0 a3.13 3.13 0 1 0 -6.26 0zM1684.37 512.5 a3.13 3.13 0 1 0 6.26 0 a3.13 3.13 0 1 0 -6.26 0z" fill="black"></path><path d="M1884.37 562.5 a3.13 3.13 0 1 0 6.26 0 a3.13 3.13 0 1 0 -6.26 0z" fill="black"></path><path d="M1834.37 512.5 a3.13 3.13 0 1 0 6.26 0 a3.13 3.13 0 1 0 -6.26 0zM1834.37 487.5 a3.13 3.13 0 1 0 6.26 0 a3.13 3.13 0 1 0 -6.26 0z" fill="black"></path><path d="M1334.37 587.5 a3.13 3.13 0 1 0 6.26 0 a3.13 3.13 0 1 0 -6.26 0zM1534.37 587.5 a3.13 3.13 0 1 0 6.26 0 a3.13 3.13 0 1 0 -6.26 0zM1409.37 612.5 a3.13 3.13 0 1 0 6.26 0 a3.13 3.13 0 1 0 -6.26 0zM1709.37 587.5 a3.13 3.13 0 1 0 6.26 0 a3.13 3.13 0 1 0 -6.26 0zM1359.37 587.5 a3.13 3.13 0 1 0 6.26 0 a3.13 3.13 0 1 0 -6.26 0zM1234.37 537.5 a3.13 3.13 0 1 0 6.26 0 a3.13 3.13 0 1 0 -6.26 0zM1734.37 612.5 a3.13 3.13 0 1 0 6.26 0 a3.13 3.13 0 1 0 -6.26 0z" fill="black"></path><path d="M1884.37 487.5 a3.13 3.13 0 1 0 6.26 0 a3.13 3.13 0 1 0 -6.26 0z" fill="black"></path><path d="M1309.37 612.5 a3.13 3.13 0 1 0 6.26 0 a3.13 3.13 0 1 0 -6.26 0zM1534.37 662.5 a3.13 3.13 0 1 0 6.26 0 a3.13 3.13 0 1 0 -6.26 0zM1484.37 662.5 a3.13 3.13 0 1 0 6.26 0 a3.13 3.13 0 1 0 -6.26 0zM1509.37 612.5 a3.13 3.13 0 1 0 6.26 0 a3.13 3.13 0 1 0 -6.26 0zM1334.37 637.5 a3.13 3.13 0 1 0 6.26 0 a3.13 3.13 0 1 0 -6.26 0zM1659.37 612.5 a3.13 3.13 0 1 0 6.26 0 a3.13 3.13 0 1 0 -6.26 0zM1609.37 587.5 a3.13 3.13 0 1 0 6.26 0 a3.13 3.13 0 1 0 -6.26 0z" fill="black"></path><path d="M1234.37 462.5 a3.13 3.13 0 1 0 6.26 0 a3.13 3.13 0 1 0 -6.26 0zM1459.37 437.5 a3.13 3.13 0 1 0 6.26 0 a3.13 3.13 0 1 0 -6.26 0zM1559.37 462.5 a3.13 3.13 0 1 0 6.26 0 a3.13 3.13 0 1 0 -6.26 0zM1709.37 512.5 a3.13 3.13 0 1 0 6.26 0 a3.13 3.13 0 1 0 -6.26 0zM1209.37 437.5 a3.13 3.13 0 1 0 6.26 0 a3.13 3.13 0 1 0 -6.26 0zM1734.37 462.5 a3.13 3.13 0 1 0 6.26 0 a3.13 3.13 0 1 0 -6.26 0zM1284.37 487.5 a3.13 3.13 0 1 0 6.26 0 a3.13 3.13 0 1 0 -6.26 0zM1384.37 487.5 a3.13 3.13 0 1 0 6.26 0 a3.13 3.13 0 1 0 -6.26 0z" fill="black"></path><path d="M884.37 687.5 a3.13 3.13 0 1 0 6.26 0 a3.13 3.13 0 1 0 -6.26 0zM1259.37 662.5 a3.13 3.13 0 1 0 6.26 0 a3.13 3.13 0 1 0 -6.26 0zM1209.37 712.5 a3.13 3.13 0 1 0 6.26 0 a3.13 3.13 0 1 0 -6.26 0zM1059.37 662.5 a3.13 3.13 0 1 0 6.26 0 a3.13 3.13 0 1 0 -6.26 0zM959.37 712.5 a3.13 3.13 0 1 0 6.26 0 a3.13 3.13 0 1 0 -6.26 0zM1434.37 662.5 a3.13 3.13 0 1 0 6.26 0 a3.13 3.13 0 1 0 -6.26 0zM859.37 662.5 a3.13 3.13 0 1 0 6.26 0 a3.13 3.13 0 1 0 -6.26 0zM959.37 637.5 a3.13 3.13 0 1 0 6.26 0 a3.13 3.13 0 1 0 -6.26 0zM1209.37 662.5 a3.13 3.13 0 1 0 6.26 0 a3.13 3.13 0 1 0 -6.26 0zM884.37 762.5 a3.13 3.13 0 1 0 6.26 0 a3.13 3.13 0 1 0 -6.26 0zM859.37 712.5 a3.13 3.13 0 1 0 6.26 0 a3.13 3.13 0 1 0 -6.26 0z" fill="black"></path><path d="M1834.37 437.5 a3.13 3.13 0 1 0 6.26 0 a3.13 3.13 0 1 0 -6.26 0zM1759.37 412.5 a3.13 3.13 0 1 0 6.26 0 a3.13 3.13 0 1 0 -6.26 0zM1859.37 412.5 a3.13 3.13 0 1 0 6.26 0 a3.13 3.13 0 1 0 -6.26 0z" fill="black"></path><path d="M1334.37 712.5 a3.13 3.13 0 1 0 6.26 0 a3.13 3.13 0 1 0 -6.26 0z" fill="black"></path><path d="M1584.37 362.5 a3.13 3.13 0 1 0 6.26 0 a3.13 3.13 0 1 0 -6.26 0zM1584.37 387.5 a3.13 3.13 0 1 0 6.26 0 a3.13 3.13 0 1 0 -6.26 0zM1684.37 362.5 a3.13 3.13 0 1 0 6.26 0 a3.13 3.13 0 1 0 -6.26 0zM1784.37 387.5 a3.13 3.13 0 1 0 6.26 0 a3.13 3.13 0 1 0 -6.26 0z" fill="black"></path><path d="M1834.37 687.5 a3.13 3.13 0 1 0 6.26 0 a3.13 3.13 0 1 0 -6.26 0z" fill="black"></path><path d="M1109.37 412.5 a3.13 3.13 0 1 0 6.26 0 a3.13 3.13 0 1 0 -6.26 0zM1234.37 387.5 a3.13 3.13 0 1 0 6.26 0 a3.13 3.13 0 1 0 -6.26 0zM1184.37 387.5 a3.13 3.13 0 1 0 6.26 0 a3.13 3.13 0 1 0 -6.26 0zM1609.37 362.5 a3.13 3.13 0 1 0 6.26 0 a3.13 3.13 0 1 0 -6.26 0zM1709.37 287.5 a3.13 3.13 0 1 0 6.26 0 a3.13 3.13 0 1 0 -6.26 0zM1384.37 387.5 a3.13 3.13 0 1 0 6.26 0 a3.13 3.13 0 1 0 -6.26 0zM1334.37 337.5 a3.13 3.13 0 1 0 6.26 0 a3.13 3.13 0 1 0 -6.26 0zM1434.37 287.5 a3.13 3.13 0 1 0 6.26 0 a3.13 3.13 0 1 0 -6.26 0zM1809.37 362.5 a3.13 3.13 0 1 0 6.26 0 a3.13 3.13 0 1 0 -6.26 0z" fill="black"></path><path d="M1084.37 737.5 a3.13 3.13 0 1 0 6.26 0 a3.13 3.13 0 1 0 -6.26 0zM1609.37 762.5 a3.13 3.13 0 1 0 6.26 0 a3.13 3.13 0 1 0 -6.26 0zM1209.37 762.5 a3.13 3.13 0 1 0 6.26 0 a3.13 3.13 0 1 0 -6.26 0zM1134.37 712.5 a3.13 3.13 0 1 0 6.26 0 a3.13 3.13 0 1 0 -6.26 0zM1459.37 762.5 a3.13 3.13 0 1 0 6.26 0 a3.13 3.13 0 1 0 -6.26 0zM909.37 812.5 a3.13 3.13 0 1 0 6.26 0 a3.13 3.13 0 1 0 -6.26 0zM1784.37 712.5 a3.13 3.13 0 1 0 6.26 0 a3.13 3.13 0 1 0 -6.26 0zM1009.37 762.5 a3.13 3.13 0 1 0 6.26 0 a3.13 3.13 0 1 0 -6.26 0zM1809.37 712.5 a3.13 3.13 0 1 0 6.26 0 a3.13 3.13 0 1 0 -6.26 0z" fill="black"></path><path d="M1809.37 312.5 a3.13 3.13 0 1 0 6.26 0 a3.13 3.13 0 1 0 -6.26 0z" fill="black"></path><path d="M1684.37 762.5 a3.13 3.13 0 1 0 6.26 0 a3.13 3.13 0 1 0 -6.26 0z" fill="black"></path><path d="M1784.37 287.5 a3.13 3.13 0 1 0 6.26 0 a3.13 3.13 0 1 0 -6.26 0z" fill="black"></path><path d="M1859.37 762.5 a3.13 3.13 0 1 0 6.26 0 a3.13 3.13 0 1 0 -6.26 0z" fill="black"></path><path d="M909.37 262.5 a3.13 3.13 0 1 0 6.26 0 a3.13 3.13 0 1 0 -6.26 0zM1184.37 287.5 a3.13 3.13 0 1 0 6.26 0 a3.13 3.13 0 1 0 -6.26 0zM1009.37 237.5 a3.13 3.13 0 1 0 6.26 0 a3.13 3.13 0 1 0 -6.26 0zM1459.37 262.5 a3.13 3.13 0 1 0 6.26 0 a3.13 3.13 0 1 0 -6.26 0zM1134.37 337.5 a3.13 3.13 0 1 0 6.26 0 a3.13 3.13 0 1 0 -6.26 0zM1459.37 287.5 a3.13 3.13 0 1 0 6.26 0 a3.13 3.13 0 1 0 -6.26 0zM1084.37 212.5 a3.13 3.13 0 1 0 6.26 0 a3.13 3.13 0 1 0 -6.26 0zM1584.37 262.5 a3.13 3.13 0 1 0 6.26 0 a3.13 3.13 0 1 0 -6.26 0zM1159.37 212.5 a3.13 3.13 0 1 0 6.26 0 a3.13 3.13 0 1 0 -6.26 0zM909.37 287.5 a3.13 3.13 0 1 0 6.26 0 a3.13 3.13 0 1 0 -6.26 0zM1184.37 337.5 a3.13 3.13 0 1 0 6.26 0 a3.13 3.13 0 1 0 -6.26 0z" fill="black"></path><path d="M1434.37 787.5 a3.13 3.13 0 1 0 6.26 0 a3.13 3.13 0 1 0 -6.26 0zM1734.37 812.5 a3.13 3.13 0 1 0 6.26 0 a3.13 3.13 0 1 0 -6.26 0zM1834.37 812.5 a3.13 3.13 0 1 0 6.26 0 a3.13 3.13 0 1 0 -6.26 0zM1634.37 812.5 a3.13 3.13 0 1 0 6.26 0 a3.13 3.13 0 1 0 -6.26 0zM1734.37 837.5 a3.13 3.13 0 1 0 6.26 0 a3.13 3.13 0 1 0 -6.26 0zM1409.37 812.5 a3.13 3.13 0 1 0 6.26 0 a3.13 3.13 0 1 0 -6.26 0z" fill="black"></path><path d="M984.37 237.5 a3.13 3.13 0 1 0 6.26 0 a3.13 3.13 0 1 0 -6.26 0zM1159.37 137.5 a3.13 3.13 0 1 0 6.26 0 a3.13 3.13 0 1 0 -6.26 0zM1684.37 162.5 a3.13 3.13 0 1 0 6.26 0 a3.13 3.13 0 1 0 -6.26 0zM1159.37 162.5 a3.13 3.13 0 1 0 6.26 0 a3.13 3.13 0 1 0 -6.26 0zM1309.37 112.5 a3.13 3.13 0 1 0 6.26 0 a3.13 3.13 0 1 0 -6.26 0zM1759.37 237.5 a3.13 3.13 0 1 0 6.26 0 a3.13 3.13 0 1 0 -6.26 0zM1084.37 162.5 a3.13 3.13 0 1 0 6.26 0 a3.13 3.13 0 1 0 -6.26 0zM909.37 212.5 a3.13 3.13 0 1 0 6.26 0 a3.13 3.13 0 1 0 -6.26 0zM1784.37 237.5 a3.13 3.13 0 1 0 6.26 0 a3.13 3.13 0 1 0 -6.26 0zM1284.37 162.5 a3.13 3.13 0 1 0 6.26 0 a3.13 3.13 0 1 0 -6.26 0z" fill="black"></path></mask></defs></svg>